<mxfile host="app.diagrams.net" agent="Mozilla/5.0 (Windows NT 10.0; Win64; x64) AppleWebKit/537.36 (KHTML, like Gecko) Chrome/135.0.0.0 Safari/537.36" version="26.2.12">
  <diagram name="PÃ¡gina-1" id="fxOaUhkbfnuaPqVzdNu7">
    <mxGraphModel dx="1044" dy="562" grid="1" gridSize="10" guides="1" tooltips="1" connect="1" arrows="1" fold="1" page="1" pageScale="1" pageWidth="827" pageHeight="1169" math="0" shadow="0">
      <root>
        <mxCell id="0" />
        <mxCell id="1" parent="0" />
        <mxCell id="JvDmKzP8-6HuJelMQi85-1" value="" style="edgeStyle=orthogonalEdgeStyle;rounded=0;orthogonalLoop=1;jettySize=auto;html=1;" edge="1" parent="1" source="JvDmKzP8-6HuJelMQi85-2" target="JvDmKzP8-6HuJelMQi85-4">
          <mxGeometry relative="1" as="geometry" />
        </mxCell>
        <mxCell id="JvDmKzP8-6HuJelMQi85-2" value="INICIO" style="strokeWidth=2;html=1;shape=mxgraph.flowchart.start_1;whiteSpace=wrap;fillColor=#d5e8d4;strokeColor=#82b366;" vertex="1" parent="1">
          <mxGeometry x="350" y="70" width="100" height="60" as="geometry" />
        </mxCell>
        <mxCell id="JvDmKzP8-6HuJelMQi85-11" value="" style="edgeStyle=orthogonalEdgeStyle;rounded=0;orthogonalLoop=1;jettySize=auto;html=1;" edge="1" parent="1" source="JvDmKzP8-6HuJelMQi85-4" target="JvDmKzP8-6HuJelMQi85-9">
          <mxGeometry relative="1" as="geometry" />
        </mxCell>
        <mxCell id="JvDmKzP8-6HuJelMQi85-4" value="A[5], B[5]&lt;div&gt;I = 1, J = 1&lt;/div&gt;" style="whiteSpace=wrap;html=1;fillColor=#f5f5f5;strokeColor=#666666;strokeWidth=2;fontColor=#333333;" vertex="1" parent="1">
          <mxGeometry x="340" y="210" width="120" height="40" as="geometry" />
        </mxCell>
        <mxCell id="JvDmKzP8-6HuJelMQi85-13" style="edgeStyle=orthogonalEdgeStyle;rounded=0;orthogonalLoop=1;jettySize=auto;html=1;exitX=0;exitY=0.75;exitDx=0;exitDy=0;entryX=0;entryY=0.5;entryDx=0;entryDy=0;" edge="1" parent="1" source="JvDmKzP8-6HuJelMQi85-6" target="JvDmKzP8-6HuJelMQi85-9">
          <mxGeometry relative="1" as="geometry" />
        </mxCell>
        <mxCell id="JvDmKzP8-6HuJelMQi85-6" value="&lt;div&gt;A[I]&lt;/div&gt;" style="html=1;strokeWidth=2;shape=manualInput;whiteSpace=wrap;rounded=1;size=26;arcSize=11;fillColor=#dae8fc;strokeColor=#6c8ebf;" vertex="1" parent="1">
          <mxGeometry x="350" y="380" width="100" height="60" as="geometry" />
        </mxCell>
        <mxCell id="JvDmKzP8-6HuJelMQi85-12" value="" style="edgeStyle=orthogonalEdgeStyle;rounded=0;orthogonalLoop=1;jettySize=auto;html=1;" edge="1" parent="1" source="JvDmKzP8-6HuJelMQi85-9" target="JvDmKzP8-6HuJelMQi85-6">
          <mxGeometry relative="1" as="geometry" />
        </mxCell>
        <mxCell id="JvDmKzP8-6HuJelMQi85-15" style="edgeStyle=orthogonalEdgeStyle;rounded=0;orthogonalLoop=1;jettySize=auto;html=1;exitX=1;exitY=0.5;exitDx=0;exitDy=0;entryX=0.5;entryY=0;entryDx=0;entryDy=0;" edge="1" parent="1" source="JvDmKzP8-6HuJelMQi85-9" target="JvDmKzP8-6HuJelMQi85-14">
          <mxGeometry relative="1" as="geometry">
            <Array as="points">
              <mxPoint x="505" y="330" />
              <mxPoint x="505" y="480" />
              <mxPoint x="400" y="480" />
            </Array>
          </mxGeometry>
        </mxCell>
        <mxCell id="JvDmKzP8-6HuJelMQi85-9" value="I=1, I &amp;lt;=TAMANHO, I++" style="shape=hexagon;perimeter=hexagonPerimeter2;whiteSpace=wrap;html=1;fixedSize=1;fillColor=#fff2cc;strokeColor=#d6b656;" vertex="1" parent="1">
          <mxGeometry x="315" y="310" width="170" height="40" as="geometry" />
        </mxCell>
        <mxCell id="JvDmKzP8-6HuJelMQi85-18" value="" style="edgeStyle=orthogonalEdgeStyle;rounded=0;orthogonalLoop=1;jettySize=auto;html=1;" edge="1" parent="1" source="JvDmKzP8-6HuJelMQi85-14" target="JvDmKzP8-6HuJelMQi85-17">
          <mxGeometry relative="1" as="geometry" />
        </mxCell>
        <mxCell id="JvDmKzP8-6HuJelMQi85-14" value="I=1, I &amp;lt;=TAMANHO, I++" style="shape=hexagon;perimeter=hexagonPerimeter2;whiteSpace=wrap;html=1;fixedSize=1;fillColor=#fff2cc;strokeColor=#d6b656;" vertex="1" parent="1">
          <mxGeometry x="315" y="510" width="170" height="40" as="geometry" />
        </mxCell>
        <mxCell id="JvDmKzP8-6HuJelMQi85-22" value="" style="edgeStyle=orthogonalEdgeStyle;rounded=0;orthogonalLoop=1;jettySize=auto;html=1;" edge="1" parent="1" source="JvDmKzP8-6HuJelMQi85-17" target="JvDmKzP8-6HuJelMQi85-21">
          <mxGeometry relative="1" as="geometry" />
        </mxCell>
        <mxCell id="JvDmKzP8-6HuJelMQi85-23" value="S" style="edgeLabel;html=1;align=center;verticalAlign=middle;resizable=0;points=[];" vertex="1" connectable="0" parent="JvDmKzP8-6HuJelMQi85-22">
          <mxGeometry x="-0.296" y="-2" relative="1" as="geometry">
            <mxPoint as="offset" />
          </mxGeometry>
        </mxCell>
        <mxCell id="JvDmKzP8-6HuJelMQi85-17" value="A[I]&lt;div&gt;&amp;gt;&lt;/div&gt;&lt;div&gt;0&lt;/div&gt;" style="rhombus;whiteSpace=wrap;html=1;fillColor=#ffe6cc;strokeColor=#d79b00;" vertex="1" parent="1">
          <mxGeometry x="360" y="610" width="80" height="80" as="geometry" />
        </mxCell>
        <mxCell id="JvDmKzP8-6HuJelMQi85-21" value="B[J] = A[I]&lt;div&gt;J = J + 1&lt;/div&gt;" style="whiteSpace=wrap;html=1;fillColor=#f5f5f5;strokeColor=#666666;fontColor=#333333;" vertex="1" parent="1">
          <mxGeometry x="340" y="740" width="120" height="40" as="geometry" />
        </mxCell>
        <mxCell id="JvDmKzP8-6HuJelMQi85-27" style="edgeStyle=orthogonalEdgeStyle;rounded=0;orthogonalLoop=1;jettySize=auto;html=1;exitX=0.5;exitY=0;exitDx=0;exitDy=0;exitPerimeter=0;entryX=0;entryY=0.5;entryDx=0;entryDy=0;" edge="1" parent="1" source="JvDmKzP8-6HuJelMQi85-24" target="JvDmKzP8-6HuJelMQi85-14">
          <mxGeometry relative="1" as="geometry" />
        </mxCell>
        <mxCell id="JvDmKzP8-6HuJelMQi85-24" value="" style="verticalLabelPosition=bottom;verticalAlign=top;html=1;shape=mxgraph.flowchart.on-page_reference;fillColor=#f5f5f5;gradientColor=#b3b3b3;strokeColor=#666666;" vertex="1" parent="1">
          <mxGeometry x="260" y="635" width="30" height="30" as="geometry" />
        </mxCell>
        <mxCell id="JvDmKzP8-6HuJelMQi85-25" style="edgeStyle=orthogonalEdgeStyle;rounded=0;orthogonalLoop=1;jettySize=auto;html=1;exitX=0;exitY=0.5;exitDx=0;exitDy=0;entryX=0.5;entryY=1;entryDx=0;entryDy=0;entryPerimeter=0;" edge="1" parent="1" source="JvDmKzP8-6HuJelMQi85-21" target="JvDmKzP8-6HuJelMQi85-24">
          <mxGeometry relative="1" as="geometry" />
        </mxCell>
        <mxCell id="JvDmKzP8-6HuJelMQi85-26" style="edgeStyle=orthogonalEdgeStyle;rounded=0;orthogonalLoop=1;jettySize=auto;html=1;exitX=0;exitY=0.5;exitDx=0;exitDy=0;entryX=1;entryY=0.5;entryDx=0;entryDy=0;entryPerimeter=0;" edge="1" parent="1" source="JvDmKzP8-6HuJelMQi85-17" target="JvDmKzP8-6HuJelMQi85-24">
          <mxGeometry relative="1" as="geometry" />
        </mxCell>
        <mxCell id="JvDmKzP8-6HuJelMQi85-28" value="N" style="edgeLabel;html=1;align=center;verticalAlign=middle;resizable=0;points=[];" vertex="1" connectable="0" parent="JvDmKzP8-6HuJelMQi85-26">
          <mxGeometry x="-0.2171" y="-3" relative="1" as="geometry">
            <mxPoint as="offset" />
          </mxGeometry>
        </mxCell>
        <mxCell id="JvDmKzP8-6HuJelMQi85-32" value="" style="edgeStyle=orthogonalEdgeStyle;rounded=0;orthogonalLoop=1;jettySize=auto;html=1;" edge="1" parent="1" source="JvDmKzP8-6HuJelMQi85-29" target="JvDmKzP8-6HuJelMQi85-31">
          <mxGeometry relative="1" as="geometry" />
        </mxCell>
        <mxCell id="JvDmKzP8-6HuJelMQi85-29" value="" style="verticalLabelPosition=bottom;verticalAlign=top;html=1;shape=mxgraph.flowchart.on-page_reference;fillColor=#f5f5f5;gradientColor=#b3b3b3;strokeColor=#666666;" vertex="1" parent="1">
          <mxGeometry x="385" y="820" width="30" height="30" as="geometry" />
        </mxCell>
        <mxCell id="JvDmKzP8-6HuJelMQi85-30" style="edgeStyle=orthogonalEdgeStyle;rounded=0;orthogonalLoop=1;jettySize=auto;html=1;exitX=1;exitY=0.5;exitDx=0;exitDy=0;entryX=1;entryY=0.5;entryDx=0;entryDy=0;entryPerimeter=0;" edge="1" parent="1" source="JvDmKzP8-6HuJelMQi85-14" target="JvDmKzP8-6HuJelMQi85-29">
          <mxGeometry relative="1" as="geometry" />
        </mxCell>
        <mxCell id="JvDmKzP8-6HuJelMQi85-31" value="FIM" style="strokeWidth=2;html=1;shape=mxgraph.flowchart.start_1;whiteSpace=wrap;fillColor=#d5e8d4;strokeColor=#82b366;" vertex="1" parent="1">
          <mxGeometry x="350" y="900" width="100" height="60" as="geometry" />
        </mxCell>
      </root>
    </mxGraphModel>
  </diagram>
</mxfile>
